<svg width="102" height="132" viewBox="0 0 102 132" fill="none" xmlns="http://www.w3.org/2000/svg">
<path d="M0 8C0 3.58172 3.58172 0 8 0H102V132H8C3.58172 132 0 128.418 0 124V8Z" fill="#BCD1FF"/>
<path d="M0 8C0 3.58172 3.58172 0 8 0H102V132H8C3.58172 132 0 128.418 0 124V8Z" fill="#D2EBF7"/>
<path opacity="0.34" d="M28.4587 94.3218C33.6827 94.3218 37.9175 93.4933 37.9175 92.4714C37.9175 91.4495 33.6827 90.6211 28.4587 90.6211C23.2348 90.6211 19 91.4495 19 92.4714C19 93.4933 23.2348 94.3218 28.4587 94.3218Z" fill="#575FA8"/>
<path d="M29.4939 89.1331L29.2998 92.2903H34.9414C34.9414 92.2903 32.6382 90.7505 31.616 90.2588L31.4995 89.146H29.4939V89.1331Z" fill="#F08789"/>
<path d="M31.2407 64.0823L31.616 89.9871H29.3904C29.3904 89.9871 26.9319 79.8425 28.1353 76.8794L25.9873 64.0823H31.2407Z" fill="#32388D"/>
<path opacity="0.2" d="M31.2407 64.0823H26.0002L28.1482 76.8794C27.7341 77.9016 27.7471 79.7908 27.9541 81.8223L31.5642 86.2346L31.2407 64.0823Z" fill="#020203"/>
<path d="M23.5419 89.5471L22.6749 92.7043H28.8341C28.8341 92.7043 26.2333 91.1646 25.1981 90.6729L25.3922 89.5601H23.5419V89.5471Z" fill="#F08789"/>
<path d="M31.3962 63.7588L29.2094 76.75L25.5217 89.9871H23.309C23.309 89.9871 24.0207 77.2805 26.298 75.9607L24.4995 63.7717H31.3962V63.7588Z" fill="#32388D"/>
<path opacity="0.2" d="M31.2537 64.6516L31.396 63.7588H24.4993L24.6545 64.8198L31.2666 65.6609L31.2537 64.6516Z" fill="#020203"/>
<path d="M34.9545 54.7917C34.9545 54.7917 36.3261 52.579 38.4611 52.0744L37.6201 53.0837C37.6201 53.0837 38.0212 54.1318 37.5165 54.6623C37.0119 55.1928 36.1967 55.2316 36.1967 55.2316L35.6274 55.8657L34.9545 54.7917Z" fill="#F5ABAE"/>
<path d="M29.5327 52.9802L31.4089 56.8102L35.0837 54.3259L36.0024 55.7363C36.0024 55.7363 32.8064 61.7402 31.396 61.3002C29.9856 60.8603 28.7693 57.6901 28.7693 57.6901L29.5327 52.9802Z" fill="white"/>
<path opacity="0.2" d="M31.396 56.8102L29.5198 52.9802L28.7693 57.6901C28.7693 57.6901 29.9856 60.8603 31.396 61.3002C31.4348 61.3132 31.4607 61.3132 31.4995 61.3132L33.1946 55.581L31.396 56.8102Z" fill="#020203"/>
<path d="M30.9561 43.9355C30.9561 43.9355 31.1761 45.8893 31.3961 46.3681H30.7879C30.7879 46.3681 30.8397 48.2443 30.4515 48.4772C30.1798 48.6455 29.3905 48.4772 29.2093 48.6972C29.0282 48.9172 28.7564 50.4829 28.7564 50.4829L26.3109 50.2758L26.5567 48.0891C26.5567 48.0891 25.1851 46.4457 25.5992 44.4272C26.0133 42.4086 30.5938 42.0593 30.9561 43.9355Z" fill="#F5ABAE"/>
<path opacity="0.2" d="M27.9025 47.1962L25.9745 47.0927C26.2592 47.7009 26.5697 48.0761 26.5697 48.0761L26.3239 50.2629L28.7694 50.4699C28.7694 50.4699 29.0411 48.9042 29.2223 48.6843C29.287 48.6066 29.4423 48.5678 29.6234 48.5678C28.6788 48.309 27.8248 47.248 27.9025 47.1962Z" fill="#020203"/>
<path d="M31.0339 44.5825C31.0339 44.5825 30.5163 44.893 29.4812 44.2072C29.4812 44.2072 28.7824 45.4624 28.1743 45.2942C28.1743 45.2942 28.1484 46.187 28.019 46.2517C27.8896 46.3164 27.6308 45.4882 27.372 45.4365C27.1132 45.3847 26.8415 45.6435 27.1262 46.4199C27.3979 47.1963 27.9026 47.1963 27.9026 47.1963L26.5569 48.0891C26.5569 48.0891 25.4958 47.7527 25.2888 46.8728C25.2888 46.8728 23.9431 45.5659 24.7583 44.6342C24.7583 44.6342 23.8654 43.8838 25.9487 42.9651C25.9487 42.9651 26.4404 41.1535 27.4109 41.9817C27.4109 41.9817 29.2094 40.6359 29.6494 41.8393C29.6494 41.8393 31.9655 41.6452 32.1079 42.9004C32.2502 44.1555 31.6938 44.4531 31.6938 44.4531C31.6938 44.4531 31.8232 45.4882 31.1762 45.54L31.0339 44.5825Z" fill="#212226"/>
<path d="M24.6157 52.812C24.6157 52.812 23.3994 52.5144 23.6065 51.2205C23.8135 49.9136 25.5215 49.3313 29.0281 50.1465C29.4422 50.2371 29.7656 50.9229 29.4939 51.5181C29.4939 51.5181 30.6196 54.2871 30.969 56.5515C31.3184 58.8159 31.4995 61.1839 31.8877 62.2837C32.263 63.3836 31.9524 64.6128 30.9043 64.6128C29.8692 64.6128 25.7803 64.6128 24.5122 64.6128C23.2442 64.6128 23.0889 62.8531 23.5935 61.0157C24.0852 59.1912 24.8228 54.1319 24.6157 52.812Z" fill="#444496"/>
<path d="M27.4627 52.1003C29.4554 52.5273 28.0709 56.4868 27.6698 57.6125C27.2686 58.7512 26.8287 59.7604 27.4627 60.6403C28.0968 61.5202 29.2095 62.5036 29.2095 62.5036L28.4591 64.0822C28.4591 64.0822 24.3055 63.5517 23.3092 62.3224C22.3258 61.0932 22.8822 58.35 23.7362 56.4609C24.5902 54.5717 25.9747 51.7897 27.4627 52.1003Z" fill="white"/>
<path d="M28.3425 64.354C28.2907 64.3281 28.2778 64.2763 28.2907 64.2246L29.3 62.0249C29.3259 61.9731 29.3777 61.9602 29.4294 61.9731C29.4812 61.999 29.4941 62.0507 29.4812 62.1025L28.4719 64.3022C28.446 64.354 28.3943 64.3669 28.3425 64.354Z" fill="#A77071"/>
<path d="M27.3976 71.8459C27.3976 72.1694 27.1388 72.4412 26.8024 72.4412C26.4789 72.4412 26.2072 72.1694 26.2072 71.8459C26.2072 71.5225 26.4659 71.2507 26.8024 71.2507C27.1388 71.2637 27.3976 71.5225 27.3976 71.8459Z" fill="#59BCAB"/>
<path d="M23.6969 71.6907C22.8688 71.6907 22.1959 71.0178 22.1959 70.1897C22.1959 69.3616 22.8688 68.6887 23.6969 68.6887C24.525 68.6887 25.1979 69.3616 25.1979 70.1897C25.1979 71.0178 24.525 71.6907 23.6969 71.6907ZM23.6969 69.478C23.2958 69.478 22.9852 69.8015 22.9852 70.1897C22.9852 70.5779 23.3087 70.9014 23.6969 70.9014C24.098 70.9014 24.4086 70.5779 24.4086 70.1897C24.4086 69.8015 24.098 69.478 23.6969 69.478Z" fill="#FCC450"/>
<path d="M66.8501 42.3311H66.3584V42.8357C66.3584 43.0686 66.1772 43.2498 65.9443 43.2498C65.7114 43.2498 65.5303 43.0686 65.5303 42.8357V42.3311H65.0256C64.7927 42.3311 64.6116 42.1499 64.6116 41.917C64.6116 41.6841 64.7927 41.5029 65.0256 41.5029H65.5303V40.9983C65.5303 40.7654 65.7114 40.5842 65.9443 40.5842C66.1772 40.5842 66.3584 40.7654 66.3584 40.9983V41.5029H66.863C67.0959 41.5029 67.2771 41.6841 67.2771 41.917C67.2642 42.1499 67.083 42.3311 66.8501 42.3311Z" fill="#59BCAB"/>
<path d="M70.9131 39.7173C70.9131 40.0408 70.6543 40.3125 70.3179 40.3125C69.9944 40.3125 69.7227 40.0537 69.7227 39.7173C69.7227 39.3938 69.9944 39.1221 70.3179 39.1221C70.6414 39.1221 70.9131 39.3809 70.9131 39.7173Z" fill="#345185"/>
<path d="M40.2855 53.032C38.4999 48.5549 39.4186 43.2627 43.0416 39.6396C44.7885 37.8928 46.9235 36.7671 49.1749 36.2883L50.5077 42.3311C47.6998 42.9392 45.6036 45.4365 45.6036 48.4255C45.6036 49.2407 45.7589 50.0171 46.0436 50.7417L40.2855 53.032Z" fill="#345185"/>
<path d="M43.0416 57.2114C42.951 57.1208 42.8475 57.0173 42.7569 56.9138L47.2728 52.6826C48.4114 53.8989 50.0289 54.6494 51.8275 54.6494C55.2693 54.6494 58.0643 51.8545 58.0643 48.4126C58.0643 45.9541 56.6539 43.832 54.5836 42.8228L57.3267 37.2717C58.5172 37.854 59.6299 38.6433 60.6133 39.6267C65.4656 44.479 65.4656 52.3591 60.6133 57.2114C55.774 62.0637 47.8939 62.0637 43.0416 57.2114Z" fill="white"/>
<path d="M51.8406 42.1887C51.3748 42.1887 50.9348 42.2405 50.5078 42.3311L49.188 36.2884C51.9053 35.6931 54.7908 36.0166 57.3398 37.2847L54.5967 42.8357C53.7685 42.4087 52.824 42.1887 51.8406 42.1887Z" fill="#59BCAB"/>
<path d="M42.7569 56.9138C41.67 55.7493 40.8419 54.4294 40.2855 53.032L46.0435 50.7417C46.3282 51.4663 46.7552 52.1262 47.2857 52.6956L42.7569 56.9138Z" fill="#C1E4EE"/>
<path d="M80.1645 45.6565V87.2957C80.1645 87.9944 79.5952 88.5637 78.8965 88.5637H52.2671C51.5684 88.5637 50.999 87.9944 50.999 87.2957V45.6565C50.999 44.9578 51.5684 44.3755 52.2671 44.3755H78.8835C79.5952 44.3755 80.1645 44.9448 80.1645 45.6565Z" fill="#4FBECB"/>
<path d="M48.0616 89.7542H83.1017C83.4252 89.7542 83.6969 89.4954 83.6969 89.1589C83.6969 88.8355 83.4381 88.5637 83.1017 88.5637H48.0616C47.7382 88.5637 47.4664 88.8225 47.4664 89.1589C47.4664 89.4954 47.7382 89.7542 48.0616 89.7542Z" fill="#E2E2E1"/>
<path d="M80.1645 45.6436V48.749H50.999V45.6436C50.999 44.9448 51.5684 44.3625 52.2671 44.3625H78.8835C79.5952 44.3755 80.1645 44.9448 80.1645 45.6436Z" fill="#4FBECB"/>
<path d="M65.5818 87.4639C64.9219 87.4639 64.3914 86.9333 64.3914 86.2734C64.3914 85.6135 64.9219 85.083 65.5818 85.083C66.2417 85.083 66.7722 85.6135 66.7722 86.2734C66.7852 86.9333 66.2417 87.4639 65.5818 87.4639Z" fill="#E6F2EA"/>
<path d="M54.3632 47.0151C54.0914 47.0151 53.8715 46.7952 53.8715 46.5234C53.8715 46.2517 54.0914 46.0317 54.3632 46.0317C54.6349 46.0317 54.8549 46.2517 54.8549 46.5234C54.8419 46.7952 54.6219 47.0151 54.3632 47.0151Z" fill="#E6F2EA"/>
<path d="M55.9031 47.0151C55.6313 47.0151 55.4114 46.7952 55.4114 46.5234C55.4114 46.2517 55.6313 46.0317 55.9031 46.0317C56.1748 46.0317 56.3948 46.2517 56.3948 46.5234C56.3948 46.7952 56.1748 47.0151 55.9031 47.0151Z" fill="#E6F2EA"/>
<path d="M79.7117 48.749H51.4519V83.802H79.7117V48.749Z" fill="#D2EBF7"/>
<path d="M56.5104 60.498V56.3445H47.1552V60.498H56.5104Z" fill="#A9DAE5"/>
<path d="M62.2192 71.0676V66.914H52.864V71.0676H62.2192Z" fill="#A9DAE5"/>
<path d="M59.3713 65.7894V61.6358H50.0161V65.7894H59.3713Z" fill="#A9DAE5"/>
<path d="M78.0944 50.2241H52.8624V54.947H78.0944V50.2241Z" fill="#EDF6F4"/>
<path d="M77.3307 50.897H73.9794V54.2483H77.3307V50.897Z" fill="#D2E8F2"/>
<path d="M61.7518 51.104H54.4927V51.751H61.7518V51.104Z" fill="#ACD8C8"/>
<path d="M61.7518 52.2556H54.4927V52.9026H61.7518V52.2556Z" fill="#ACD8C8"/>
<path d="M59.3839 53.4072H54.4927V54.0542H59.3839V53.4072Z" fill="#ACD8C8"/>
<path opacity="0.5" d="M82.8559 70.3967H62.2175V80.0884H82.8559V70.3967Z" fill="#96CEB8"/>
<path d="M72.375 73.748H64.2749V74.5632H72.375V73.748Z" fill="#E6F2EA"/>
<path d="M70.447 75.1973H64.2749V76.0125H70.447V75.1973Z" fill="#E6F2EA"/>
<path d="M68.4414 76.6594H64.2749V77.4746H68.4414V76.6594Z" fill="#E6F2EA"/>
<path d="M71.4431 76.6594H68.9587V77.4746H71.4431V76.6594Z" fill="#E6F2EA"/>
<path d="M69.9036 78.1086H64.2749V78.9238H69.9036V78.1086Z" fill="#E6F2EA"/>
<path d="M60.3155 72.6223H52.8624V80.0754H60.3155V72.6223Z" fill="#9FD2BA"/>
<path d="M58.2372 78.0206C59.1468 77.111 59.1468 75.6363 58.2372 74.7267C57.3277 73.8172 55.853 73.8172 54.9434 74.7267C54.0339 75.6363 54.0339 77.111 54.9434 78.0206C55.853 78.9301 57.3277 78.9301 58.2372 78.0206Z" fill="#7CC39E"/>
<path d="M58.3619 76.3748C58.3619 76.957 58.0773 77.4746 57.6373 77.7981C57.5079 77.8887 57.3656 77.9792 57.2103 78.031C57.1456 78.0569 57.068 78.0828 57.0033 78.0957C56.9645 78.1086 56.9127 78.1086 56.8739 78.1216C56.7833 78.1345 56.6928 78.1475 56.6022 78.1475C56.421 78.1475 56.2399 78.1216 56.0717 78.0698C55.347 77.8499 54.8295 77.177 54.8295 76.3748C54.8295 76.103 54.8942 75.8313 55.0106 75.5984C55.153 75.3137 55.36 75.0679 55.6188 74.8997C55.6835 74.8608 55.7482 74.822 55.8129 74.7832C55.9552 74.7056 56.1105 74.6538 56.2787 74.6279C56.3822 74.6021 56.4987 74.6021 56.6022 74.6021C57.3527 74.6021 57.9996 75.0679 58.2455 75.7278C58.3102 75.9348 58.3619 76.1418 58.3619 76.3748Z" fill="#EFF4F4"/>
<path d="M56.5892 76.5818C56.4728 76.5818 56.3822 76.4912 56.3822 76.3748V75.2361C56.3822 75.1196 56.4728 75.0291 56.5892 75.0291C56.7057 75.0291 56.7963 75.1196 56.7963 75.2361V76.3748C56.7963 76.4912 56.7057 76.5818 56.5892 76.5818Z" fill="#C1D6CF"/>
<path d="M56.5892 76.5817C56.5245 76.5817 56.4598 76.5429 56.421 76.4912C56.3563 76.4006 56.3951 76.2712 56.4857 76.2065L57.068 75.8313C57.1585 75.7666 57.2879 75.8054 57.3526 75.896C57.4173 75.9865 57.3785 76.1159 57.2879 76.1806L56.7056 76.5559C56.6668 76.5688 56.628 76.5817 56.5892 76.5817Z" fill="#C1D6CF"/>
<path d="M78.0943 56.3445H63.3692V71.0696H78.0943V56.3445Z" fill="#98D5E9"/>
<path d="M70.7319 64.3669C69.6967 64.3669 68.8557 63.5259 68.8557 62.4907V61.365C68.8557 60.3298 69.6967 59.4888 70.7319 59.4888C71.767 59.4888 72.6081 60.3298 72.6081 61.365V62.4907C72.6081 63.5259 71.767 64.3669 70.7319 64.3669Z" fill="#F8FCFA"/>
<path d="M70.7319 63.4094C68.9592 63.4094 67.4453 64.4446 66.7336 65.9456C66.3195 66.8254 66.9536 67.8347 67.924 67.8347H73.5527C74.5232 67.8347 75.1572 66.8254 74.7431 65.9456C74.0315 64.4446 72.5046 63.4094 70.7319 63.4094Z" fill="#F8FCFA"/>
<path d="M78.0914 81.7775V80.5741H52.8595V81.7775H78.0914Z" fill="#FFE1AB"/>
<path d="M79.9835 55.8657V51.4792C80.294 51.4792 80.5528 51.738 80.5528 52.0486V55.3093C80.5528 55.6199 80.294 55.8657 79.9835 55.8657Z" fill="#4FBECB"/>
<path d="M79.9835 60.7698V56.3833C80.2941 56.3833 80.5529 56.6421 80.5529 56.9526V60.2134C80.5529 60.511 80.2941 60.7698 79.9835 60.7698Z" fill="#4FBECB"/>
<path opacity="0.3" d="M67.8463 48.749L51.452 65.1433V56.3315L59.0345 48.749H67.8463Z" fill="#F6FBFD"/>
<path opacity="0.3" d="M73.9795 48.749L51.452 71.2766V66.8772L69.5801 48.749H73.9795Z" fill="#F6FBFD"/>
<path opacity="0.3" d="M57.3006 73.981V77.7593C57.3006 77.9145 57.1971 78.0569 57.0547 78.0957V88.5508H52.2801C51.5814 88.5508 51.012 87.9814 51.012 87.2827V66.282H56.1749C56.6666 66.282 57.0547 66.6831 57.0547 67.1619V73.6445C57.1971 73.6963 57.3006 73.8257 57.3006 73.981Z" fill="#385F82"/>
<path d="M53.6649 64.5352V93.4419C53.6649 93.9336 53.2638 94.3218 52.785 94.3218H37.6071C37.1283 94.3218 36.7272 93.9336 36.7272 93.4419V64.5352C36.7272 64.0435 37.1283 63.6553 37.6071 63.6553H52.7721C53.2638 63.6553 53.6649 64.0435 53.6649 64.5352Z" fill="#5BB98E"/>
<path d="M53.6649 64.5352V66.696H36.7272V64.5352C36.7272 64.0435 37.1283 63.6553 37.6071 63.6553H52.785C53.2638 63.6553 53.6649 64.0564 53.6649 64.5352Z" fill="#5BB98E"/>
<path d="M45.1896 93.5713C44.7367 93.5713 44.3615 93.196 44.3615 92.7432C44.3615 92.2903 44.7367 91.915 45.1896 91.915C45.6425 91.915 46.0177 92.2903 46.0177 92.7432C46.0177 93.196 45.6554 93.5713 45.1896 93.5713Z" fill="#E6F2EA"/>
<path d="M42.1228 65.4797C41.9416 65.4797 41.7864 65.3245 41.7864 65.1433C41.7864 64.9622 41.9416 64.8069 42.1228 64.8069C42.304 64.8069 42.4592 64.9622 42.4592 65.1433C42.4592 65.3374 42.3169 65.4797 42.1228 65.4797Z" fill="#E6F2EA"/>
<path d="M46.8975 65.2727H43.5461C43.4814 65.2727 43.4167 65.2209 43.4167 65.1433C43.4167 65.0657 43.4685 65.0139 43.5461 65.0139H46.8975C46.9622 65.0139 47.0269 65.0657 47.0269 65.1433C47.0269 65.2209 46.9622 65.2727 46.8975 65.2727Z" fill="#E6F2EA"/>
<path d="M53.3415 66.696H37.0378V91.0352H53.3415V66.696Z" fill="#D2EBF7"/>
<path d="M41.3077 79.6355H38.3446V80.5671H41.3077V79.6355Z" fill="#EDF6F4"/>
<path d="M48.8515 79.6355H45.8884V80.5671H48.8515V79.6355Z" fill="#EDF6F4"/>
<path d="M45.073 79.6355H42.1099V80.5671H45.073V79.6355Z" fill="#EDF6F4"/>
<path d="M52.0605 81.3306H40.1303V84.6043H52.0605V81.3306Z" fill="#EDF6F4"/>
<path d="M51.53 81.7964H49.2009V84.1255H51.53V81.7964Z" fill="#D5EAE4"/>
<path d="M44.5555 81.9387H39.5092V82.3916H44.5555V81.9387Z" fill="#ACD8C8"/>
<path d="M44.5555 82.741H39.5092V83.1938H44.5555V82.741Z" fill="#ACD8C8"/>
<path d="M42.8993 83.5432H39.5092V83.9961H42.8993V83.5432Z" fill="#ACD8C8"/>
<path d="M47.0914 85.4194H38.3702V89.5083H47.0914V85.4194Z" fill="#EDF6F4"/>
<path d="M43.9602 86.0405H39.509V86.4934H43.9602V86.0405Z" fill="#FFE1AB"/>
<path d="M42.8992 86.8298H39.509V87.2827H42.8992V86.8298Z" fill="#FFE1AB"/>
<path d="M41.7993 87.6321H39.509V88.085H41.7993V87.6321Z" fill="#FFE1AB"/>
<path d="M43.4424 87.6321H42.0838V88.085H43.4424V87.6321Z" fill="#ACD8C8"/>
<path d="M42.6016 88.4343H39.509V88.8872H42.6016V88.4343Z" fill="#FFE1AB"/>
<path opacity="0.5" d="M48.8643 68.21H36.0283V78.678H48.8643V68.21Z" fill="#FFE1AB"/>
<path d="M43.6239 76.7629C45.4391 76.7629 46.9105 75.2915 46.9105 73.4763C46.9105 71.6612 45.4391 70.1897 43.6239 70.1897C41.8088 70.1897 40.3373 71.6612 40.3373 73.4763C40.3373 75.2915 41.8088 76.7629 43.6239 76.7629Z" fill="#FCC450"/>
<path d="M46.1082 73.4763C46.1082 74.3044 45.707 75.0291 45.0989 75.4819C44.9177 75.6113 44.7107 75.7278 44.4907 75.8054C44.4001 75.8442 44.2966 75.8701 44.1931 75.896C44.1284 75.9089 44.0637 75.9219 44.012 75.9348C43.8826 75.9607 43.7532 75.9607 43.6238 75.9607C43.365 75.9607 43.1191 75.9219 42.8862 75.8442C41.877 75.5337 41.1394 74.5762 41.1394 73.4634C41.1394 73.0752 41.23 72.7129 41.3853 72.3765C41.5793 71.9753 41.877 71.626 42.2522 71.3801C42.3428 71.3154 42.4333 71.2637 42.5239 71.2249C42.731 71.1213 42.9509 71.0437 43.1709 71.0049C43.3262 70.979 43.4685 70.9661 43.6238 70.9661C44.6848 70.9661 45.5906 71.626 45.9399 72.5576C46.0564 72.8552 46.1082 73.1658 46.1082 73.4763Z" fill="#EFF4F4"/>
<path d="M43.6238 73.7739C43.4685 73.7739 43.3391 73.6445 43.3391 73.4893V71.8977C43.3391 71.7424 43.4685 71.613 43.6238 71.613C43.7791 71.613 43.9084 71.7424 43.9084 71.8977V73.4893C43.9084 73.6445 43.7791 73.7739 43.6238 73.7739Z" fill="#C1D6CF"/>
<path d="M43.6238 73.7739C43.5332 73.7739 43.4297 73.7222 43.3779 73.6445C43.2873 73.5151 43.3391 73.334 43.4685 73.2434L44.2966 72.7258C44.426 72.6352 44.6072 72.687 44.6977 72.8164C44.7883 72.9458 44.7366 73.1269 44.6072 73.2175L43.779 73.7351C43.7273 73.761 43.6755 73.7739 43.6238 73.7739Z" fill="#C1D6CF"/>
<path opacity="0.3" d="M48.4244 66.696L37.0377 78.0698V71.9624L42.3041 66.696H48.4244Z" fill="#F6FBFD"/>
<path opacity="0.3" d="M52.6815 66.696L37.0377 82.3398V79.2732L49.6149 66.696H52.6815Z" fill="#F6FBFD"/>
<g opacity="0.7">
<path opacity="0.7" d="M54.286 85.4194H47.9716V91.7339H54.286V85.4194Z" fill="#9FD2BA"/>
<path opacity="0.7" d="M51.1157 88.8613C50.6758 88.8613 50.3135 88.499 50.3135 88.0591V87.5803C50.3135 87.1404 50.6758 86.7781 51.1157 86.7781C51.5557 86.7781 51.918 87.1404 51.918 87.5803V88.0591C51.9309 88.499 51.5686 88.8613 51.1157 88.8613Z" fill="#F8FCFA"/>
<path opacity="0.7" d="M51.1157 88.4473C50.3523 88.4473 49.7053 88.8872 49.3948 89.5342C49.2136 89.9094 49.4854 90.3494 49.8994 90.3494H52.3062C52.7202 90.3494 52.9919 89.9094 52.8108 89.5342C52.5391 88.8872 51.8791 88.4473 51.1157 88.4473Z" fill="#F8FCFA"/>
</g>
<path d="M51.892 68.21H50.0157V80.5671H51.892V68.21Z" fill="#9FD2BA"/>
<path d="M53.5355 75.5078V70.9919C53.7426 70.9919 53.9108 71.1602 53.9108 71.3672V75.1455C53.9108 75.3396 53.7426 75.5078 53.5355 75.5078Z" fill="#5BB98E"/>
<path opacity="0.3" d="M42.2003 63.6553L40.6476 68.21L37.0763 78.678L36.7269 79.7131V78.678H36.0411V68.21H36.7269V64.5352C36.7269 64.0435 37.1281 63.6553 37.6068 63.6553H42.2003Z" fill="#385F82"/>
<path d="M28.2776 95.5122H56.0457C56.3691 95.5122 56.6409 95.2534 56.6409 94.917C56.6409 94.5935 56.3821 94.3218 56.0457 94.3218H28.2776C27.9541 94.3218 27.6824 94.5806 27.6824 94.917C27.6953 95.2534 27.9541 95.5122 28.2776 95.5122Z" fill="#E2E2E1"/>
</svg>
