<svg width="24" height="24" viewBox="0 0 24 24" fill="none" xmlns="http://www.w3.org/2000/svg">
<path d="M20.58 10.94L13.58 3.94002C13.1995 3.56132 12.6459 3.41437 12.1277 3.55453C11.6095 3.69469 11.2054 4.10067 11.0677 4.61953C10.9299 5.1384 11.0795 5.69132 11.46 6.07002L15.89 10.49H4.47998C3.65155 10.49 2.97998 11.1616 2.97998 11.99C2.97998 12.8184 3.65155 13.49 4.47998 13.49H15.89L11.46 17.91C11.0315 18.339 10.9035 18.9837 11.1354 19.5439C11.3673 20.104 11.9137 20.4695 12.52 20.47C12.9225 20.464 13.3053 20.2943 13.58 20L20.58 13C21.1649 12.4144 21.1649 11.4657 20.58 10.88V10.94Z" fill="#423FFF"/>
</svg>
