<svg width="20" height="20" viewBox="0 0 20 20" fill="none" xmlns="http://www.w3.org/2000/svg">
<g clip-path="url(#clip0_18_291)">
<path d="M6.76335 8.67013L10 5.43354L13.2384 8.67179L15.1217 6.78846L10 1.66663L4.88009 6.78679L6.76335 8.67013ZM1.66679 9.9997L3.5502 8.11631L5.43347 9.99959L3.55009 11.883L1.66679 9.9997ZM6.76335 11.3298L10 14.5664L13.2383 11.3282L15.1226 13.2105L15.1217 13.2115L10 18.3333L4.87993 13.2133L4.87726 13.2106L6.76335 11.3298ZM14.5669 10.0007L16.4503 8.11735L18.3336 10.0006L16.4502 11.884L14.5669 10.0007Z" fill="#F2BB36"/>
<path d="M11.9102 9.99895H11.911L9.99995 8.08789L8.58763 9.50021H8.58754L8.4253 9.66254L8.09063 9.99729L8.08797 9.99987L8.09063 10.0026L9.99995 11.912L11.911 10.001L11.9119 9.99987L11.9102 9.99895Z" fill="#F2BB36"/>
</g>
<defs>
<clipPath id="clip0_18_291">
<rect width="16.6667" height="16.6667" fill="white" transform="translate(1.66667 1.66663)"/>
</clipPath>
</defs>
</svg>
