<svg width="20" height="20" viewBox="0 0 20 20" fill="none" xmlns="http://www.w3.org/2000/svg">
<path fill-rule="evenodd" clip-rule="evenodd" d="M17.2806 6.39119C16.0921 3.53733 13.3074 1.67511 10.216 1.66686C6.88412 1.64931 3.92154 3.78346 2.88295 6.94933C1.84435 10.1152 2.96699 13.5896 5.66173 15.5491C8.35646 17.5086 12.0077 17.5057 14.6993 15.5419L17.0993 17.9419C17.3433 18.1856 17.7386 18.1856 17.9826 17.9419C18.2263 17.6978 18.2263 17.3025 17.9826 17.0585L15.6576 14.7335C17.8294 12.5334 18.4691 9.24505 17.2806 6.39119ZM16.1663 11.8076C15.1684 14.2124 12.8195 15.7786 10.216 15.7752V15.7419C6.68238 15.7374 3.81384 12.8837 3.79096 9.35019C3.78759 6.74663 5.35378 4.39773 7.75851 3.39983C10.1632 2.40194 12.9323 2.95182 14.7733 4.79281C16.6143 6.6338 17.1642 9.40291 16.1663 11.8076Z" fill="#C0C0CF"/>
</svg>
