<svg width="20" height="20" viewBox="0 0 20 20" fill="none" xmlns="http://www.w3.org/2000/svg">
<path fill-rule="evenodd" clip-rule="evenodd" d="M8.04968 0C3.60396 0 0 3.60396 0 8.04968V11.9503C0 16.396 3.60396 20 8.04968 20H11.9503C16.396 20 20 16.396 20 11.9503V8.04968C20 5.91477 19.1519 3.8673 17.6423 2.3577C16.1327 0.848089 14.0852 0 11.9503 0H8.04968ZM1.37994 8.04968C1.37994 4.36609 4.36609 1.37994 8.04968 1.37994H11.9503C13.7192 1.37994 15.4157 2.08265 16.6665 3.33346C17.9174 4.58428 18.6201 6.28076 18.6201 8.04968V11.9503C18.6201 15.6339 15.6339 18.6201 11.9503 18.6201H8.04968C4.36609 18.6201 1.37994 15.6339 1.37994 11.9503V8.04968ZM13.9282 10.69H15.5198V10.7176C15.9008 10.7176 16.2098 10.4087 16.2098 10.0276C16.2098 9.64654 15.9008 9.33763 15.5198 9.33763H13.9098C13.4337 9.33605 12.9766 9.52484 12.6403 9.86201L10.6624 11.8399V7.24011C10.7516 6.81477 10.5311 6.38499 10.1335 6.20951C9.73588 6.03403 9.26971 6.16074 9.01564 6.51334L6.36615 9.18123C6.28716 9.26436 6.17723 9.311 6.06256 9.31003H4.48022C4.09916 9.31003 3.79025 9.61894 3.79025 10C3.79025 10.3811 4.09916 10.69 4.48022 10.69H6.06256C6.54205 10.6855 7.00087 10.4941 7.34131 10.1564L9.27323 8.17847V12.7783C9.24786 13.1833 9.49081 13.557 9.87121 13.6983C9.98682 13.75 10.1126 13.7752 10.2392 13.7718C10.4949 13.7706 10.7397 13.6681 10.92 13.4867L13.6339 10.8096C13.7137 10.7346 13.8187 10.6919 13.9282 10.69Z" fill="#C0C0CF"/>
</svg>
