<svg width="20" height="20" viewBox="0 0 20 20" fill="none" xmlns="http://www.w3.org/2000/svg">
<path fill-rule="evenodd" clip-rule="evenodd" d="M7.90514 0H12.0949C14.1914 0 16.2021 0.832861 17.6846 2.31536C19.1671 3.79786 20 5.80857 20 7.90514V12.0949C20 16.4607 16.4607 20 12.0949 20H7.90514C3.53925 20 0 16.4607 0 12.0949V7.90514C0 3.53925 3.53925 0 7.90514 0ZM14.2194 10.7411H15.9289V10.7708C16.3382 10.7708 16.67 10.4389 16.67 10.0296C16.67 9.62034 16.3382 9.28854 15.9289 9.28854H14.1996C13.6881 9.28684 13.1972 9.48963 12.836 9.85178L10.7115 11.9763V7.03557C10.8073 6.57871 10.5704 6.11708 10.1434 5.92859C9.7163 5.74011 9.21558 5.8762 8.94268 6.25494L6.09683 9.12055C6.01199 9.20984 5.89391 9.25993 5.77075 9.25889H4.07114C3.66184 9.25889 3.33003 9.5907 3.33003 10C3.33003 10.4093 3.66184 10.7411 4.07114 10.7411H5.77075C6.28578 10.7363 6.7786 10.5307 7.14426 10.168L9.21936 8.04348V12.9842C9.19211 13.4192 9.45307 13.8206 9.86166 13.9723C9.98583 14.0279 10.1209 14.0549 10.2569 14.0514C10.5316 14.0501 10.7946 13.9399 10.9881 13.7451L13.9032 10.8696C13.989 10.789 14.1017 10.7432 14.2194 10.7411Z" fill="#423FFF"/>
</svg>
