<svg width="20" height="20" viewBox="0 0 20 20" fill="none" xmlns="http://www.w3.org/2000/svg">
<path fill-rule="evenodd" clip-rule="evenodd" d="M12.7263 0.892442L18.2842 4.9977C19.3553 5.77289 19.9927 7.01235 20 8.33455V15.7661C19.9312 18.1491 17.9518 20.0297 15.5684 19.9767H4.44211C2.05466 20.0356 0.0688305 18.1533 0 15.7661V8.33455C0.0073259 7.01235 0.644652 5.77289 1.71579 4.9977L7.27368 0.892442C8.89647 -0.29748 11.1035 -0.29748 12.7263 0.892442ZM5.26316 15.524H14.7368C15.1729 15.524 15.5263 15.1706 15.5263 14.7345C15.5263 14.2985 15.1729 13.9451 14.7368 13.9451H5.26316C4.82715 13.9451 4.47369 14.2985 4.47369 14.7345C4.47369 15.1706 4.82715 15.524 5.26316 15.524Z" fill="#423FFF"/>
</svg>
