<svg width="21" height="20" viewBox="0 0 21 20" fill="none" xmlns="http://www.w3.org/2000/svg">
<path fill-rule="evenodd" clip-rule="evenodd" d="M5.0307 0.00213042H15.1113C16.4283 -0.0365596 17.7062 0.453065 18.6601 1.36194C19.6141 2.27081 20.1649 3.52345 20.19 4.84082V12.1277C20.1115 14.8358 17.8682 16.9764 15.1593 16.9279H13.604C13.2131 16.929 12.8432 17.1051 12.5959 17.408L11.1271 19.2801C10.881 19.5846 10.5105 19.7615 10.119 19.7615C9.72752 19.7615 9.35701 19.5846 9.11094 19.2801L7.59405 17.3696C7.34684 17.0667 6.97693 16.8906 6.58599 16.8895H5.0307C2.32183 16.938 0.0784778 14.7974 0 12.0892V4.80242C0.07332 2.09196 2.31978 -0.051613 5.0307 0.00213042ZM15.1209 15.4879C17.0492 15.5363 18.654 14.0173 18.7115 12.0893V4.84082C18.654 2.90897 17.0433 1.38841 15.1113 1.44222H5.0307C3.09875 1.38841 1.48799 2.90897 1.43049 4.84082V12.0893C1.48799 14.0211 3.09875 15.5417 5.0307 15.4879H6.586C7.41846 15.488 8.2059 15.8659 8.72692 16.5151L10.071 18.224L11.4151 16.5151C11.9361 15.8659 12.7235 15.488 13.556 15.4879H15.1209Z" fill="#C0C0CF"/>
<path d="M6.47078 6.68408C6.07311 6.68408 5.75073 7.00646 5.75073 7.40412V9.70826C5.75073 10.1059 6.07311 10.4283 6.47078 10.4283C6.86844 10.4283 7.19082 10.1059 7.19082 9.70826V7.40412C7.19082 7.00646 6.86844 6.68408 6.47078 6.68408V6.68408Z" fill="#C0C0CF"/>
<path d="M10.071 6.68408C9.67333 6.68408 9.35095 7.00646 9.35095 7.40412V9.70826C9.35095 10.1059 9.67333 10.4283 10.071 10.4283C10.4687 10.4283 10.791 10.1059 10.791 9.70826V7.40412C10.791 7.00646 10.4687 6.68408 10.071 6.68408V6.68408Z" fill="#C0C0CF"/>
<path d="M13.6712 6.68408C13.2735 6.68408 12.9512 7.00646 12.9512 7.40412V9.70826C12.9512 10.1059 13.2735 10.4283 13.6712 10.4283C14.0689 10.4283 14.3913 10.1059 14.3913 9.70826V7.40412C14.3913 7.00646 14.0689 6.68408 13.6712 6.68408V6.68408Z" fill="#C0C0CF"/>
</svg>
