<svg width="16" height="20" viewBox="0 0 16 20" fill="none" xmlns="http://www.w3.org/2000/svg">
<path d="M12.64 20H3.36C2.34918 19.9632 1.40757 19.477 0.79235 18.6741C0.177128 17.8713 -0.0474309 16.8356 0.180003 15.85L0.420003 14.71C0.696038 13.1668 2.02262 12.0327 3.59 12H12.41C13.9774 12.0327 15.304 13.1668 15.58 14.71L15.82 15.85C16.0474 16.8356 15.8229 17.8713 15.2077 18.6741C14.5924 19.477 13.6508 19.9632 12.64 20Z" fill="#423FFF"/>
<path d="M8.50002 10H7.50002C5.29088 10 3.50001 8.20915 3.50001 6.00001V3.36001C3.49735 2.46807 3.85049 1.61189 4.48119 0.981192C5.11189 0.350491 5.96807 -0.00265152 6.86002 1.49917e-05H9.14002C10.032 -0.00265152 10.8881 0.350491 11.5188 0.981192C12.1495 1.61189 12.5027 2.46807 12.5 3.36001V6.00001C12.5 7.06088 12.0786 8.0783 11.3284 8.82844C10.5783 9.57859 9.56088 10 8.50002 10Z" fill="#423FFF"/>
</svg>
