<svg width="30" height="41" viewBox="0 0 30 41" fill="none" xmlns="http://www.w3.org/2000/svg">
<path d="M7.58758 28.9553C6.90868 28.2764 7.26258 28.4678 5.6251 28.0295C4.88214 27.8303 4.22902 27.4475 3.6384 26.9889L0.0939034 35.6795C-0.249062 36.5209 0.391557 37.4349 1.29936 37.4005L5.41572 37.2435L8.24695 40.2341C8.87194 40.8935 9.9688 40.688 10.3118 39.8466L14.3781 29.8764C13.5313 30.3483 12.5914 30.6248 11.6196 30.6248C10.0961 30.6248 8.66491 30.0319 7.58758 28.9553ZM29.9061 35.6795L26.3616 26.9889C25.771 27.4483 25.1179 27.8303 24.3749 28.0295C22.7288 28.4702 23.0898 28.278 22.4124 28.9553C21.3351 30.0319 19.9031 30.6248 18.3797 30.6248C17.4078 30.6248 16.468 30.3475 15.6211 29.8764L19.6875 39.8466C20.0304 40.688 21.1281 40.8935 21.7523 40.2341L24.5843 37.2435L28.7006 37.4005C29.6084 37.4349 30.2491 36.5201 29.9061 35.6795ZM20.5468 27.1874C21.7406 25.9725 21.8773 26.0772 23.5773 25.6139C24.6624 25.3179 25.5108 24.4546 25.8015 23.3499C26.3858 21.1312 26.2343 21.3991 27.8288 19.7757C28.6233 18.9671 28.9335 17.7882 28.6428 16.6836C28.0592 14.4664 28.0585 14.7758 28.6428 12.5563C28.9335 11.4516 28.6233 10.2727 27.8288 9.46411C26.2343 7.84069 26.3858 8.10788 25.8015 5.88993C25.5108 4.78525 24.6624 3.92198 23.5773 3.62589C21.3992 3.03137 21.6617 3.18683 20.0656 1.56263C19.2711 0.754047 18.1125 0.437644 17.0273 0.733734C14.85 1.32748 15.1539 1.32826 12.9727 0.733734C11.8875 0.437644 10.729 0.753265 9.93443 1.56263C8.33991 3.18605 8.60241 3.03137 6.42353 3.62589C5.33838 3.92198 4.48995 4.78525 4.19933 5.88993C3.61574 8.10788 3.76652 7.84069 2.17201 9.46411C1.37748 10.2727 1.06655 11.4516 1.35795 12.5563C1.94154 14.7719 1.94232 14.4625 1.35795 16.6828C1.06733 17.7875 1.37748 18.9664 2.17201 19.7757C3.76652 21.3991 3.61496 21.1312 4.19933 23.3499C4.48995 24.4546 5.33838 25.3179 6.42353 25.6139C8.17195 26.0905 8.30241 26.0155 9.45318 27.1874C10.4868 28.2397 12.0969 28.428 13.3391 27.6421C13.8358 27.3267 14.412 27.1592 15.0004 27.1592C15.5888 27.1592 16.165 27.3267 16.6617 27.6421C17.9031 28.428 19.5132 28.2397 20.5468 27.1874ZM7.62976 14.3719C7.62976 10.2289 10.9297 6.87039 15 6.87039C19.0703 6.87039 22.3702 10.2289 22.3702 14.3719C22.3702 18.5148 19.0703 21.8734 15 21.8734C10.9297 21.8734 7.62976 18.5148 7.62976 14.3719Z" fill="#7D7B7B"/>
</svg>
