<svg width="30" height="31" viewBox="0 0 30 31" fill="none" xmlns="http://www.w3.org/2000/svg">
<path fill-rule="evenodd" clip-rule="evenodd" d="M0 3.6249C0 2.82928 0.31606 2.06624 0.87865 1.50365C1.44124 0.94106 2.20428 0.625 2.9999 0.625L26.9991 0.625C27.7947 0.625 28.5578 0.94106 29.1203 1.50365C29.6829 2.06624 29.999 2.82928 29.999 3.6249V11.6246L28.399 10.4227C26.666 9.12285 24.5222 8.4918 22.3613 8.64537C20.2003 8.79895 18.1673 9.72683 16.6355 11.2587C15.1036 12.7905 14.1757 14.8235 14.0222 16.9845C13.8686 19.1454 14.4997 21.2892 15.7995 23.0223L15.9995 23.2902V30.624H2.9999C2.20428 30.624 1.44124 30.3079 0.87865 29.7453C0.31606 29.1828 0 28.4197 0 27.6241L0 3.6249ZM15.9995 10.6247H5.9998V8.62473H15.9995V10.6247ZM5.9998 16.6245H11.9996V14.6245H5.9998V16.6245Z" fill="#7D7B7B"/>
<path fill-rule="evenodd" clip-rule="evenodd" d="M22.9992 10.6245C21.6207 10.6243 20.2728 11.0312 19.1246 11.7941C17.9764 12.557 17.079 13.6419 16.545 14.9128C16.011 16.1837 15.8641 17.584 16.1229 18.9381C16.3816 20.2921 17.0344 21.5396 17.9994 22.5241V29.6239C17.9994 29.8096 18.0511 29.9916 18.1488 30.1496C18.2464 30.3076 18.3861 30.4352 18.5522 30.5183C18.7183 30.6013 18.9042 30.6365 19.0892 30.6198C19.2741 30.6031 19.4508 30.5353 19.5994 30.4238L22.9992 27.8739L26.3991 30.4238C26.5477 30.5353 26.7244 30.6031 26.9093 30.6198C27.0943 30.6365 27.2802 30.6013 27.4463 30.5183C27.6124 30.4352 27.7521 30.3076 27.8497 30.1496C27.9474 29.9916 27.9991 29.8096 27.9991 29.6239V22.5241C28.9641 21.5396 29.6169 20.2921 29.8756 18.9381C30.1344 17.584 29.9875 16.1837 29.4535 14.9128C28.9195 13.6419 28.0221 12.557 26.8739 11.7941C25.7257 11.0312 24.3778 10.6243 22.9992 10.6245ZM19.9993 27.6239V23.9501C20.9093 24.3821 21.9253 24.624 22.9992 24.624C24.0732 24.624 25.0892 24.3841 25.9991 23.9501V27.6239L23.5992 25.824C23.4261 25.6942 23.2156 25.624 22.9992 25.624C22.7829 25.624 22.5724 25.6942 22.3993 25.824L19.9993 27.6239Z" fill="#7D7B7B"/>
</svg>
