<svg width="30" height="31" viewBox="0 0 30 31" fill="none" xmlns="http://www.w3.org/2000/svg">
<path d="M6.03122 6.65683C3.06014 9.62791 1.56422 13.3938 0.808228 16.385L14.2407 29.8148C17.2318 29.0614 20.9978 27.5655 23.9688 24.5918C26.9399 21.618 28.4358 17.8548 29.1918 14.8636L15.7594 1.43652C12.7682 2.18984 9.00229 3.68576 6.03122 6.65683ZM17.9898 11.1392L19.4864 9.64666C19.6874 9.46431 19.9508 9.36627 20.2221 9.37286C20.4934 9.37945 20.7517 9.49015 20.9436 9.68203C21.1355 9.87392 21.2462 10.1323 21.2528 10.4036C21.2594 10.6748 21.1614 10.9383 20.979 11.1392L19.4864 12.6358L20.2337 13.3838C20.4319 13.582 20.5433 13.8508 20.5433 14.1311C20.5433 14.4113 20.4319 14.6802 20.2337 14.8783C20.0355 15.0765 19.7667 15.1879 19.4864 15.1879C19.2061 15.1879 18.9373 15.0765 18.7391 14.8783L17.9919 14.1311L16.4946 15.6256L17.2419 16.3729C17.4401 16.5711 17.5514 16.8399 17.5514 17.1202C17.5514 17.4005 17.4401 17.6693 17.2419 17.8675C17.0437 18.0657 16.7749 18.177 16.4946 18.177C16.2143 18.177 15.9455 18.0657 15.7473 17.8675L15 17.1202L13.5054 18.6155L14.2527 19.3628C14.3509 19.4609 14.4287 19.5774 14.4818 19.7056C14.5349 19.8338 14.5623 19.9713 14.5623 20.11C14.5623 20.2488 14.5349 20.3863 14.4818 20.5145C14.4287 20.6427 14.3509 20.7592 14.2527 20.8573C14.1546 20.9555 14.0381 21.0333 13.9099 21.0864C13.7817 21.1395 13.6442 21.1669 13.5054 21.1669C13.3667 21.1669 13.2292 21.1395 13.101 21.0864C12.9728 21.0333 12.8563 20.9555 12.7582 20.8573L12.0102 20.1121L10.5136 21.6046C10.3126 21.787 10.0492 21.885 9.77794 21.8784C9.50665 21.8718 9.2483 21.7611 9.05642 21.5692C8.86453 21.3774 8.75383 21.119 8.74724 20.8477C8.74066 20.5764 8.83869 20.313 9.02104 20.1121L10.5136 18.6155L9.76632 17.8675C9.56813 17.6693 9.45678 17.4005 9.45678 17.1202C9.45678 16.8399 9.56813 16.5711 9.76632 16.3729C9.96451 16.1747 10.2333 16.0634 10.5136 16.0634C10.7939 16.0634 11.0627 16.1747 11.2609 16.3729L12.0082 17.1202L13.5054 15.6256L12.7582 14.8783C12.66 14.7802 12.5822 14.6637 12.5291 14.5355C12.476 14.4073 12.4486 14.2698 12.4486 14.1311C12.4486 13.9923 12.476 13.8549 12.5291 13.7266C12.5822 13.5984 12.66 13.4819 12.7582 13.3838C12.8563 13.2856 12.9728 13.2078 13.101 13.1547C13.2292 13.1016 13.3667 13.0742 13.5054 13.0742C13.6442 13.0742 13.7817 13.1016 13.9099 13.1547C14.0381 13.2078 14.1546 13.2856 14.2527 13.3838L15 14.1311L16.4946 12.6358L15.7473 11.8885C15.5491 11.6903 15.4378 11.4215 15.4378 11.1412C15.4378 10.8609 15.5491 10.5921 15.7473 10.3939C15.9455 10.1958 16.2143 10.0844 16.4946 10.0844C16.7749 10.0844 17.0437 10.1958 17.2419 10.3939L17.9898 11.1392Z" fill="#7D7B7B"/>
<path d="M29.7697 11.8511C30.2591 8.1997 30.0375 3.79833 28.4304 2.1946C26.8234 0.590879 22.4253 0.366559 18.7739 0.855377C18.6059 0.878144 18.4284 0.903589 18.2443 0.932383L29.6947 12.3828C29.7214 12.1966 29.7469 12.0192 29.7697 11.8511Z" fill="#7D7B7B"/>
<path d="M0.230331 19.4005C-0.259156 23.0519 -0.037514 27.4533 1.56956 29.057C2.69049 30.1786 5.17945 30.6252 7.82442 30.6252C8.96189 30.6234 10.098 30.5467 11.2254 30.3956C11.3935 30.3728 11.5709 30.3474 11.7551 30.3186L0.304659 18.8682C0.278544 19.055 0.253098 19.2324 0.230331 19.4005Z" fill="#7D7B7B"/>
</svg>
