<svg width="30" height="29" viewBox="0 0 30 29" fill="none" xmlns="http://www.w3.org/2000/svg">
<path d="M8.41934 13.6895L7.4516 16.6895H9.38708L8.41934 13.6895Z" fill="#7D7B7B"/>
<path d="M27.0968 0.625H11.6129V5.46371H15.4839V7.39919H2.90323C1.25806 7.39919 0 8.65726 0 10.3024V20.9476C0 22.5927 1.25806 23.8508 2.90323 23.8508H3.87097V28.7863L9.96774 23.8508H16.4516V17.0766H27.0968C28.7419 17.0766 30 15.8185 30 14.1734V3.52823C30 1.88306 28.7419 0.625 27.0968 0.625ZM10.4516 19.8831L9.96774 18.3347H6.96774L6.3871 19.8831H4.06452L7.25806 11.2702H9.58064L12.7742 19.8831H10.4516ZM25.1613 12.2379V14.1734C23.9032 14.1734 22.5484 13.7863 21.3871 13.2056C20.2258 13.7863 18.871 14.0766 17.5161 14.1734L17.4194 12.2379C18.0968 12.2379 18.7742 12.1411 19.4516 11.9476C18.5806 11.0766 18 10.0121 17.7097 8.85081H19.7419C20.0323 9.72177 20.6129 10.3992 21.2903 10.9798C22.3548 10.1089 23.0323 8.85081 23.129 7.39919H17.3226V5.46371H20.2258V3.52823H22.1613V5.46371H25.3548L25.4516 6.43145C25.5484 8.46371 24.7742 10.496 23.3226 11.9476C24 12.1411 24.5806 12.2379 25.1613 12.2379Z" fill="#7D7B7B"/>
</svg>
