<svg width="23" height="31" viewBox="0 0 23 31" fill="none" xmlns="http://www.w3.org/2000/svg">
<path d="M11.25 0.0244141V8.46191C11.25 9.20784 11.5463 9.92321 12.0738 10.4507C12.6012 10.9781 13.3166 11.2744 14.0625 11.2744H22.5V27.2119C22.5 27.9578 22.2037 28.6732 21.6762 29.2007C21.1488 29.7281 20.4334 30.0244 19.6875 30.0244H2.8125C2.06658 30.0244 1.35121 29.7281 0.823762 29.2007C0.296316 28.6732 0 27.9578 0 27.2119V2.83691C0 2.09099 0.296316 1.37562 0.823762 0.848176C1.35121 0.32073 2.06658 0.0244141 2.8125 0.0244141H11.25ZM13.125 0.493164V8.46191C13.125 8.71055 13.2238 8.94901 13.3996 9.12483C13.5754 9.30064 13.8139 9.39941 14.0625 9.39941H22.0312L13.125 0.493164Z" fill="#7D7B7B"/>
</svg>
