<svg width="30" height="29" viewBox="0 0 30 29" fill="none" xmlns="http://www.w3.org/2000/svg">
<path d="M15 0C12.9545 0 11.3565 0.752841 10.206 2.25852C9.0554 3.7642 8.48011 5.68892 8.48011 8.03267C8.46591 10.9446 9.40341 13.2528 11.2926 14.9574C11.5341 15.1847 11.6193 15.4759 11.5483 15.831L11.0582 16.8537C10.902 17.1946 10.6712 17.4609 10.3658 17.6527C10.0604 17.8445 9.41761 18.1179 8.4375 18.473C8.39489 18.4872 7.49645 18.7784 5.74219 19.3466C3.98793 19.9148 3.05398 20.2273 2.94034 20.2841C1.74716 20.7813 0.965909 21.2997 0.596591 21.8395C0.198864 22.7344 0 25 0 28.6364H30C30 25 29.8011 22.7344 29.4034 21.8395C29.0341 21.2997 28.2528 20.7813 27.0597 20.2841C26.946 20.2273 26.0121 19.9148 24.2578 19.3466C22.5036 18.7784 21.6051 18.4872 21.5625 18.473C20.5824 18.1179 19.9396 17.8445 19.6342 17.6527C19.3288 17.4609 19.098 17.1946 18.9418 16.8537L18.4517 15.831C18.3807 15.4759 18.4659 15.1847 18.7074 14.9574C20.5966 13.2528 21.5341 10.9446 21.5199 8.03267C21.5199 5.68892 20.9446 3.7642 19.794 2.25852C18.6435 0.752841 17.0455 0 15 0Z" fill="black"/>
</svg>
