<svg width="30" height="25" viewBox="0 0 30 25" fill="none" xmlns="http://www.w3.org/2000/svg">
<path d="M18 15.6245H12C11.1717 15.6245 10.5 16.2962 10.5 17.1245V23.1245C10.5 23.9528 11.1717 24.6245 12 24.6245H18C18.8283 24.6245 19.5 23.9528 19.5 23.1245V17.1245C19.5 16.2962 18.8283 15.6245 18 15.6245ZM9 2.12451C9 1.29623 8.32828 0.624512 7.5 0.624512H1.5C0.671719 0.624512 0 1.29623 0 2.12451V8.12451C0 8.95279 0.671719 9.62451 1.5 9.62451H5.98688L9.41625 15.6264C9.93656 14.7329 10.8938 14.1245 12 14.1245H12.0131L9 8.85154V6.62451H19.5V3.62451H9V2.12451ZM28.5 0.624512H22.5C21.6717 0.624512 21 1.29623 21 2.12451V8.12451C21 8.95279 21.6717 9.62451 22.5 9.62451H28.5C29.3283 9.62451 30 8.95279 30 8.12451V2.12451C30 1.29623 29.3283 0.624512 28.5 0.624512Z" fill="#7D7B7B"/>
</svg>
