<svg width="30" height="31" viewBox="0 0 30 31" fill="none" xmlns="http://www.w3.org/2000/svg">
<path d="M9.74859 0.624023C7.22555 0.624566 4.80094 1.60307 2.98428 3.35392C1.16761 5.10476 0.100332 7.49162 0.00672036 10.0129C-0.0868914 12.5342 0.800452 14.9937 2.48228 16.8744C4.16411 18.7551 6.50949 19.9107 9.02554 20.0984C9.21341 17.3897 10.3744 14.8403 12.2943 12.9204C14.2142 11.0005 16.7636 9.83953 19.4723 9.65165C19.2898 7.19758 18.1861 4.90326 16.3827 3.22892C14.5793 1.55458 12.2094 0.624063 9.74859 0.624023ZM13.9189 9.29463L9.41857 13.7949C9.20761 14.0056 8.92166 14.124 8.62351 14.124C8.32536 14.124 8.03941 14.0056 7.82845 13.7949L5.5783 11.5418C5.37345 11.3295 5.26018 11.0452 5.26289 10.7503C5.26559 10.4553 5.38404 10.1731 5.59274 9.96463C5.80144 9.75613 6.08368 9.63794 6.37867 9.63552C6.67367 9.63309 6.95781 9.74663 7.16991 9.95167L8.62501 11.4083L12.3288 7.70302C12.5411 7.49817 12.8253 7.3849 13.1203 7.3876C13.4153 7.39031 13.6974 7.50876 13.9059 7.71746C14.1144 7.92616 14.2326 8.2084 14.235 8.50339C14.2375 8.79839 14.1239 9.08253 13.9189 9.29463Z" fill="#7D7B7B"/>
<path d="M10.4987 20.8757C10.4987 18.2896 11.526 15.8095 13.3546 13.9809C15.1832 12.1523 17.6633 11.125 20.2493 11.125C22.8354 11.125 25.3155 12.1523 27.1441 13.9809C28.9727 15.8095 30 18.2896 30 20.8757C30 23.4617 28.9727 25.9418 27.1441 27.7705C25.3155 29.5991 22.8354 30.6264 20.2493 30.6264C17.6633 30.6264 15.1832 29.5991 13.3546 27.7705C11.526 25.9418 10.4987 23.4617 10.4987 20.8757ZM16.8246 17.4854C16.6149 17.6974 16.4979 17.9839 16.4993 18.2821C16.5007 18.5802 16.6204 18.8656 16.8321 19.0756L18.6547 20.8802L16.8291 22.7058C16.7186 22.8088 16.6299 22.933 16.5684 23.071C16.5069 23.209 16.4739 23.358 16.4712 23.5091C16.4685 23.6601 16.4963 23.8102 16.5529 23.9503C16.6095 24.0904 16.6937 24.2176 16.8005 24.3245C16.9074 24.4313 17.0346 24.5155 17.1747 24.5721C17.3148 24.6287 17.4649 24.6565 17.6159 24.6538C17.767 24.6512 17.916 24.6181 18.054 24.5566C18.192 24.4951 18.3162 24.4065 18.4192 24.2959L20.2493 22.4673L22.072 24.2959C22.2828 24.5072 22.569 24.626 22.8675 24.6263C23.1659 24.6266 23.4523 24.5083 23.6636 24.2974C23.8748 24.0866 23.9937 23.8004 23.994 23.5019C23.9942 23.2034 23.8759 22.9171 23.6651 22.7058L21.8424 20.8802L23.6606 19.0741C23.8663 18.8626 23.9808 18.5787 23.9792 18.2836C23.9777 17.9886 23.8603 17.7059 23.6523 17.4966C23.4444 17.2873 23.1625 17.168 22.8675 17.1645C22.5724 17.161 22.2878 17.2736 22.075 17.4779L20.2493 19.2916L18.4177 17.4764C18.2058 17.2667 17.9193 17.1497 17.6211 17.1512C17.323 17.1526 17.0376 17.2723 16.8276 17.4839L16.8246 17.4854Z" fill="#7D7B7B"/>
</svg>
