<svg width="30" height="26" viewBox="0 0 30 26" fill="none" xmlns="http://www.w3.org/2000/svg">
<path d="M30 3.5291C28.8968 4.01796 27.7116 4.34827 26.4657 4.49757C27.7513 3.72833 28.713 2.51765 29.1716 1.09142C27.9638 1.80884 26.6419 2.31382 25.2634 2.58442C24.3364 1.59463 23.1085 0.938588 21.7704 0.718137C20.4324 0.497686 19.059 0.725163 17.8634 1.36525C16.6679 2.00534 15.7171 3.02223 15.1588 4.25803C14.6004 5.49384 14.4656 6.87943 14.7754 8.19967C12.328 8.07679 9.93389 7.44069 7.74829 6.33264C5.5627 5.22459 3.63451 3.66937 2.08888 1.76789C1.56038 2.67955 1.2565 3.73654 1.2565 4.86223C1.25591 5.87561 1.50546 6.87347 1.98302 7.76728C2.46057 8.66108 3.15136 9.42319 3.9941 9.98599C3.01675 9.95489 2.06096 9.6908 1.20629 9.21571V9.29498C1.20619 10.7163 1.69783 12.0939 2.59779 13.1939C3.49775 14.294 4.7506 15.0489 6.14375 15.3304C5.2371 15.5758 4.28654 15.6119 3.36387 15.4361C3.75693 16.659 4.52259 17.7285 5.55364 18.4947C6.5847 19.2608 7.82954 19.6854 9.11389 19.709C6.93363 21.4205 4.24102 22.3489 1.46922 22.3448C0.978219 22.345 0.487637 22.3163 0 22.259C2.81354 24.068 6.08871 25.028 9.43363 25.0243C20.7566 25.0243 26.9466 15.6462 26.9466 7.51263C26.9466 7.24838 26.94 6.98149 26.9281 6.71725C28.1322 5.84652 29.1715 4.76828 29.9974 3.53307L30 3.5291V3.5291Z" fill="#7D7B7B"/>
</svg>
