<svg width="29" height="29" viewBox="0 0 29 29" fill="none" xmlns="http://www.w3.org/2000/svg">
<path d="M24.4806 13.581H18.0246C17.3763 13.581 16.8508 13.0555 16.8508 12.4072V5.95117C16.8508 4.97874 16.0625 4.19043 15.0901 4.19043C14.1176 4.19043 13.3293 4.97874 13.3293 5.95117V12.4072C13.3293 13.0555 12.8038 13.581 12.1555 13.581H5.69946C4.72703 13.581 3.93872 14.3693 3.93872 15.3418C3.93872 16.3142 4.72703 17.1025 5.69946 17.1025H12.1555C12.8038 17.1025 13.3293 17.628 13.3293 18.2763V24.7324C13.3293 25.7048 14.1176 26.4931 15.0901 26.4931C16.0625 26.4931 16.8508 25.7048 16.8508 24.7324V18.2763C16.8508 17.628 17.3763 17.1025 18.0246 17.1025H24.4806C25.4531 17.1025 26.2414 16.3142 26.2414 15.3418C26.2414 14.3693 25.4531 13.581 24.4806 13.581Z" fill="#212134"/>
</svg>
