<svg width="14" height="4" viewBox="0 0 14 4" fill="none" xmlns="http://www.w3.org/2000/svg">
<path d="M1.5 2.75C1.91421 2.75 2.25 2.41421 2.25 2C2.25 1.58579 1.91421 1.25 1.5 1.25C1.08579 1.25 0.75 1.58579 0.75 2C0.75 2.41421 1.08579 2.75 1.5 2.75Z" stroke="white" stroke-width="1.5" stroke-linecap="round" stroke-linejoin="round"/>
<path d="M7 2.75C7.41421 2.75 7.75 2.41421 7.75 2C7.75 1.58579 7.41421 1.25 7 1.25C6.58579 1.25 6.25 1.58579 6.25 2C6.25 2.41421 6.58579 2.75 7 2.75Z" stroke="white" stroke-width="1.5" stroke-linecap="round" stroke-linejoin="round"/>
<path d="M12.5 2.75C12.9142 2.75 13.25 2.41421 13.25 2C13.25 1.58579 12.9142 1.25 12.5 1.25C12.0858 1.25 11.75 1.58579 11.75 2C11.75 2.41421 12.0858 2.75 12.5 2.75Z" stroke="white" stroke-width="1.5" stroke-linecap="round" stroke-linejoin="round"/>
</svg>
