<svg width="44" height="44" viewBox="0 0 44 44" fill="none" xmlns="http://www.w3.org/2000/svg">
<path d="M0 4C0 1.79086 1.79086 0 4 0H40C42.2091 0 44 1.79086 44 4V40C44 42.2091 42.2091 44 40 44H4C1.79086 44 0 42.2091 0 40V4Z" fill="#EF4444"/>
<path d="M22.972 22.0067L29.3017 15.6985C29.5661 15.4316 29.5661 14.9992 29.3017 14.7322C29.0419 14.4605 28.6129 14.4524 28.3432 14.714L22.0136 21.0222L15.7653 14.714C15.6372 14.5774 15.459 14.5 15.2725 14.5C15.0861 14.5 14.9078 14.5774 14.7797 14.714C14.5453 14.9719 14.5453 15.3677 14.7797 15.6256L21.028 21.9247L14.6983 28.2237C14.4339 28.4907 14.4339 28.9231 14.6983 29.19C14.8242 29.32 14.9974 29.3925 15.1776 29.3906C15.3613 29.4056 15.5433 29.3466 15.6839 29.2265L22.0136 22.9183L28.3432 29.2994C28.4691 29.4294 28.6422 29.5019 28.8224 29.5C29.0024 29.5008 29.1752 29.4285 29.3017 29.2994C29.5661 29.0325 29.5661 28.6001 29.3017 28.3331L22.972 22.0067Z" fill="white"/>
</svg>
