<svg width="44" height="44" viewBox="0 0 44 44" fill="none" xmlns="http://www.w3.org/2000/svg">
<path d="M0 4C0 1.79086 1.79086 0 4 0H40C42.2091 0 44 1.79086 44 4V40C44 42.2091 42.2091 44 40 44H4C1.79086 44 0 42.2091 0 40V4Z" fill="#4F86C6"/>
<path d="M13.5625 27.3125H21.375V30.125H18.875C18.5298 30.125 18.25 30.4048 18.25 30.75C18.25 31.0952 18.5298 31.375 18.875 31.375H25.125C25.4702 31.375 25.75 31.0952 25.75 30.75C25.75 30.4048 25.4702 30.125 25.125 30.125H22.625V27.3125H30.4375C30.6861 27.3122 30.9243 27.2133 31.1001 27.0376C31.2758 26.8618 31.3747 26.6236 31.375 26.375V14.8125C31.3747 14.5639 31.2758 14.3257 31.1001 14.1499C30.9243 13.9742 30.6861 13.8753 30.4375 13.875H13.5625C13.3139 13.8753 13.0757 13.9742 12.8999 14.1499C12.7242 14.3257 12.6253 14.5639 12.625 14.8125V26.375C12.6253 26.6236 12.7242 26.8618 12.8999 27.0376C13.0757 27.2133 13.3139 27.3122 13.5625 27.3125ZM13.875 15.125H30.125V26.0625H13.875V15.125Z" fill="white"/>
</svg>
