<svg width="44" height="44" viewBox="0 0 44 44" fill="none" xmlns="http://www.w3.org/2000/svg">
<path d="M0 4C0 1.79086 1.79086 0 4 0H40C42.2091 0 44 1.79086 44 4V40C44 42.2091 42.2091 44 40 44H4C1.79086 44 0 42.2091 0 40V4Z" fill="#10B981"/>
<path d="M19.2095 27.5602C19.0416 27.5676 18.876 27.5183 18.7395 27.4202L14.2495 23.7102C13.9602 23.4541 13.9166 23.0186 14.1495 22.7102C14.4052 22.4223 14.8373 22.3748 15.1495 22.6002L19.1495 25.8602L29.6495 16.1502C29.96 15.9171 30.3971 15.9595 30.657 16.248C30.9169 16.5365 30.9136 16.9757 30.6495 17.2602L19.7195 27.3602C19.5803 27.488 19.3984 27.5593 19.2095 27.5602Z" fill="white"/>
</svg>
