<svg width="44" height="44" viewBox="0 0 44 44" fill="none" xmlns="http://www.w3.org/2000/svg">
<path d="M0 4C0 1.79086 1.79086 0 4 0H40C42.2091 0 44 1.79086 44 4V40C44 42.2091 42.2091 44 40 44H4C1.79086 44 0 42.2091 0 40V4Z" fill="#CB9173"/>
<path d="M24.5 29.75C24.5 30.3023 24.0523 30.75 23.5 30.75H20.5C19.9477 30.75 19.5 30.3023 19.5 29.75V26.75C19.5 26.1977 19.9477 25.75 20.5 25.75H23.5C24.0523 25.75 24.5 26.1977 24.5 26.75V29.75ZM20.75 29.5H23.25V27H20.75V29.5Z" fill="white"/>
<path d="M32 19.5C32 19.1548 31.7202 18.875 31.375 18.875H26.375C26.0298 18.875 25.75 19.1548 25.75 19.5C25.75 19.8452 26.0298 20.125 26.375 20.125H28.25V22H15.75V20.125H17.625C17.9702 20.125 18.25 19.8452 18.25 19.5C18.25 19.1548 17.9702 18.875 17.625 18.875H12.625C12.2798 18.875 12 19.1548 12 19.5C12 19.8452 12.2798 20.125 12.625 20.125H14.5V22.25C14.5 22.8023 14.9477 23.25 15.5 23.25H17.7075L15.75 26.1856V28.25C15.75 28.5952 16.0298 28.875 16.375 28.875C16.7202 28.875 17 28.5952 17 28.25V26.5644L19.2094 23.25H24.7906L27 26.5644V28.25C27 28.5952 27.2798 28.875 27.625 28.875C27.9702 28.875 28.25 28.5952 28.25 28.25V26.1856L26.2925 23.25H28.5C29.0523 23.25 29.5 22.8023 29.5 22.25V20.125H31.375C31.7202 20.125 32 19.8452 32 19.5Z" fill="white"/>
<path d="M22.0001 15.75C21.5077 15.7498 21.0201 15.8469 20.5654 16.0357C20.3032 16.1445 20.0548 16.2826 19.8249 16.4469C19.5446 16.6473 19.5474 17.0473 19.791 17.2909C20.0352 17.5351 20.4287 17.5264 20.7255 17.3501C20.8274 17.2896 20.9337 17.2363 21.0437 17.1907C21.3469 17.065 21.6719 17.0002 22.0001 17.0002C22.3283 17.0002 22.6533 17.065 22.9565 17.1907C23.0664 17.2363 23.1725 17.2895 23.2743 17.3499C23.5714 17.5263 23.9651 17.535 24.2094 17.2907C24.4533 17.0468 24.456 16.6465 24.1754 16.4461C23.9456 16.2819 23.6973 16.1439 23.4351 16.0352C22.9802 15.8466 22.4926 15.7496 22.0001 15.75Z" fill="white"/>
<path d="M18.0448 14.6634C17.778 14.882 17.7801 15.2801 18.0239 15.524C18.2681 15.7682 18.6621 15.7644 18.9347 15.5523C19.2864 15.2788 19.6739 15.0529 20.0872 14.8815C20.6935 14.63 21.3436 14.5005 22 14.5005C22.6565 14.5005 23.3065 14.63 23.9129 14.8815C24.3261 15.0529 24.7136 15.2788 25.0653 15.5523C25.3379 15.7644 25.7319 15.7682 25.9761 15.524C26.22 15.2801 26.222 14.882 25.9553 14.6634C25.4835 14.2768 24.9568 13.9607 24.3913 13.7261C23.6333 13.4116 22.8207 13.2498 22 13.2498C21.1793 13.2498 20.3667 13.4116 19.6087 13.7261C19.0433 13.9607 18.5165 14.2768 18.0448 14.6634Z" fill="white"/>
</svg>
